<svg width="304" height="63" viewBox="0 0 304 63" fill="none" xmlns="http://www.w3.org/2000/svg">
<path d="M14 33.5L14 47.5H-9.53674e-07L-9.53674e-07 33.5H6.5625H14Z" fill="#36AEE8"/>
<path d="M14 15.5L14 29.5L-9.53674e-07 29.5L-9.53674e-07 15.5L6.5625 15.5L14 15.5Z" fill="#EF3573" fill-opacity="0.99"/>
<path d="M0 11.511V0H31.3345V45.1915C31.3345 46.6695 31.7331 47.8348 32.5304 48.6874C33.3846 49.4833 34.552 49.8812 36.0326 49.8812H50.1269V61.3922H34.7513C29.683 61.3922 25.6968 59.9711 22.7925 57.1289C19.9451 54.2298 18.5214 50.2507 18.5214 45.1915V11.511H0Z" fill="#313742"/>
<path d="M56.7564 48.6022C56.7564 43.8272 58.4932 40.0755 61.967 37.3469C65.4408 34.5616 70.1674 33.1689 76.1468 33.1689H86.3118V28.9908C86.3118 27.3423 85.5999 26.0064 84.1763 24.9832C82.8095 23.96 80.9303 23.4484 78.5385 23.4484C76.4315 23.4484 74.6661 23.8463 73.2425 24.6422C71.8758 25.3811 70.9931 26.4043 70.5944 27.7118H58.2085C58.5502 25.5517 59.262 23.619 60.344 21.9136C61.483 20.1514 62.9351 18.6735 64.7004 17.4797C66.4658 16.2292 68.5159 15.2912 70.8507 14.6659C73.1855 13.9838 75.7481 13.6427 78.5385 13.6427C81.6137 13.6427 84.4041 14.0122 86.9097 14.7512C89.4723 15.4902 91.6363 16.5418 93.4017 17.9061C95.224 19.2135 96.6192 20.8051 97.5873 22.681C98.6123 24.5569 99.1248 26.6601 99.1248 28.9908V61.3922H86.9097V52.0129H86.1409C85.7423 55.1962 84.2332 57.6973 81.6137 59.5164C79.0511 61.3354 75.7197 62.2449 71.6195 62.2449C67.0637 62.2449 63.4476 61.0227 60.7711 58.5784C58.0946 56.1341 56.7564 52.8087 56.7564 48.6022ZM69.5694 46.5558C69.5694 48.3748 70.1958 49.8243 71.4486 50.9044C72.7584 51.9276 74.6092 52.4392 77.001 52.4392C79.7344 52.4392 81.9553 51.8139 83.6637 50.5633C85.4291 49.2559 86.3118 47.6074 86.3118 45.6178V40.8429H76.1468C74.1536 40.8429 72.5591 41.3545 71.3632 42.3777C70.1674 43.344 69.5694 44.7367 69.5694 46.5558Z" fill="#313742"/>
<path d="M130.355 62.2449C127.109 62.2449 124.148 61.8186 121.472 60.9659C118.852 60.1132 116.603 58.8911 114.723 57.2994C112.844 55.7078 111.392 53.8035 110.367 51.5865C109.342 49.3127 108.829 46.7832 108.829 43.9978V31.9751C108.829 29.1897 109.342 26.6886 110.367 24.4716C111.392 22.1978 112.844 20.2651 114.723 18.6735C116.603 17.0818 118.852 15.8597 121.472 15.007C124.148 14.0975 127.109 13.6427 130.355 13.6427C133.203 13.6427 135.851 14.0406 138.299 14.8365C140.748 15.6323 142.912 16.7692 144.791 18.2471C146.671 19.7251 148.237 21.5157 149.489 23.619C150.742 25.7222 151.596 28.0813 152.052 30.6961H139.239C138.84 28.8771 137.844 27.4275 136.249 26.3475C134.655 25.2675 132.69 24.7274 130.355 24.7274C127.622 24.7274 125.486 25.3811 123.949 26.6886C122.411 27.9391 121.642 29.7013 121.642 31.9751V43.9978C121.642 46.2716 122.411 48.0337 123.949 49.2843C125.486 50.5349 127.622 51.1602 130.355 51.1602C132.633 51.1602 134.569 50.6202 136.164 49.5401C137.758 48.4032 138.783 46.9253 139.239 45.1062H152.052C151.596 47.7211 150.742 50.0801 149.489 52.1834C148.237 54.2866 146.671 56.1057 144.791 57.6405C142.912 59.1184 140.748 60.2553 138.299 61.0512C135.851 61.847 133.203 62.2449 130.355 62.2449Z" fill="#313742"/>
<path d="M173.886 14.4954V43.0598C173.886 48.4601 176.306 51.1602 181.147 51.1602C185.987 51.1602 188.408 48.4601 188.408 43.0598V14.4954H201.221V43.1451C201.221 49.1706 199.427 53.8603 195.839 57.2141C192.309 60.568 187.411 62.2449 181.147 62.2449C174.769 62.2449 169.815 60.568 166.284 57.2141C162.81 53.8035 161.073 49.1138 161.073 43.1451V14.4954H173.886Z" fill="#313742"/>
<path d="M211.95 14.4954H224.08V22.5958H224.934C225.333 19.6967 226.586 17.4797 228.693 15.9449C230.8 14.4101 233.562 13.6427 236.978 13.6427C241.819 13.6427 245.606 15.2059 248.339 18.3324C251.073 21.402 252.44 25.6654 252.44 31.1224V61.3922H239.626V32.4015C239.626 30.014 238.943 28.1381 237.576 26.7738C236.267 25.4096 234.473 24.7274 232.195 24.7274C229.917 24.7274 228.095 25.4096 226.728 26.7738C225.418 28.1381 224.763 30.014 224.763 32.4015V61.3922H211.95V14.4954Z" fill="#313742"/>
<path d="M261.632 48.6022C261.632 43.8272 263.368 40.0755 266.842 37.3469C270.316 34.5616 275.043 33.1689 281.022 33.1689H291.187V28.9908C291.187 27.3423 290.475 26.0064 289.051 24.9832C287.685 23.96 285.805 23.4484 283.414 23.4484C281.307 23.4484 279.541 23.8463 278.118 24.6422C276.751 25.3811 275.868 26.4043 275.47 27.7118H263.084C263.425 25.5517 264.137 23.619 265.219 21.9136C266.358 20.1514 267.81 18.6735 269.576 17.4797C271.341 16.2292 273.391 15.2912 275.726 14.6659C278.061 13.9838 280.623 13.6427 283.414 13.6427C286.489 13.6427 289.279 14.0122 291.785 14.7512C294.348 15.4902 296.512 16.5418 298.277 17.9061C300.099 19.2135 301.494 20.8051 302.462 22.681C303.487 24.5569 304 26.6601 304 28.9908V61.3922H291.785V52.0129H291.016C290.618 55.1962 289.108 57.6973 286.489 59.5164C283.926 61.3354 280.595 62.2449 276.495 62.2449C271.939 62.2449 268.323 61.0227 265.646 58.5784C262.97 56.1341 261.632 52.8087 261.632 48.6022ZM274.445 46.5558C274.445 48.3748 275.071 49.8243 276.324 50.9044C277.634 51.9276 279.484 52.4392 281.876 52.4392C284.61 52.4392 286.831 51.8139 288.539 50.5633C290.304 49.2559 291.187 47.6074 291.187 45.6178V40.8429H281.022C279.029 40.8429 277.434 41.3545 276.238 42.3777C275.043 43.344 274.445 44.7367 274.445 46.5558Z" fill="#313742"/>
</svg>
