<svg width="51" height="62" viewBox="0 0 51 62" fill="none" xmlns="http://www.w3.org/2000/svg">
<path d="M14 33.5L14 47.5H-6.0784e-07L-6.0784e-07 33.5H6.5625H14Z" fill="#36AEE8"/>
<path d="M14 15.5L14 29.5L-6.0784e-07 29.5L-6.0784e-07 15.5L6.5625 15.5L14 15.5Z" fill="#EF3573"/>
<path d="M6.10352e-05 11.511V0H31.3346V45.1915C31.3346 46.6695 31.7332 47.8348 32.5304 48.6874C33.3846 49.4833 34.552 49.8812 36.0327 49.8812H50.127V61.3922H34.7514C29.6831 61.3922 25.6968 59.9711 22.7925 57.1289C19.9452 54.2298 18.5215 50.2507 18.5215 45.1915V11.511H6.10352e-05Z" fill="#313742"/>
</svg>
